<?xml version="1.0" encoding="UTF-8"?><!DOCTYPE svg PUBLIC "-//W3C//DTD SVG 1.1//EN" "http://www.w3.org/Graphics/SVG/1.1/DTD/svg11.dtd"><svg xmlns="http://www.w3.org/2000/svg" xmlns:xlink="http://www.w3.org/1999/xlink" version="1.1" id="mdi-account-multiple-outline" width="24" height="24" viewBox="0 0 24 24"><path d="M9,4C11.21,4 13,5.79 13,8C13,10.21 11.21,12 9,12C6.79,12 5,10.21 5,8C5,5.79 6.79,4 9,4M9,6C7.9,6 7,6.9 7,8C7,9.1 7.9,10 9,10C10.1,10 11,9.1 11,8C11,6.9 10.1,6 9,6M9,13C11.67,13 17,14.34 17,17V20H1V17C1,14.34 6.33,13 9,13M9,14.9C6.03,14.9 2.9,16.36 2.9,17V18.1H15.1V17C15.1,16.36 11.97,14.9 9,14.9M15,4C17.21,4 19,5.79 19,8C19,10.21 17.21,12 15,12C14.53,12 14.08,11.92 13.67,11.77C14.5,10.74 15,9.43 15,8C15,6.57 14.5,5.26 13.67,4.23C14.08,4.08 14.53,4 15,4M23,17V20H19V16.5C19,15.25 18.24,14.1 16.97,13.18C19.68,13.62 23,14.9 23,17Z" /></svg>