<?xml version="1.0" encoding="UTF-8"?><!DOCTYPE svg PUBLIC "-//W3C//DTD SVG 1.1//EN" "http://www.w3.org/Graphics/SVG/1.1/DTD/svg11.dtd"><svg xmlns="http://www.w3.org/2000/svg" xmlns:xlink="http://www.w3.org/1999/xlink" version="1.1" id="mdi-alpha-r-box-outline" width="24" height="24" viewBox="0 0 24 24"><path d="M9,7H13C14.1,7 15,7.9 15,9V11C15,11.84 14.5,12.55 13.76,12.85L15,17H13L11.8,13H11V17H9V7M11,9V11H13V9H11M5,3H19C20.1,3 21,3.9 21,5V19C21,20.1 20.1,21 19,21H5C3.9,21 3,20.1 3,19V5C3,3.9 3.9,3 5,3M5,5V19H19V5H5Z" /></svg>