<?xml version="1.0" encoding="UTF-8"?><!DOCTYPE svg PUBLIC "-//W3C//DTD SVG 1.1//EN" "http://www.w3.org/Graphics/SVG/1.1/DTD/svg11.dtd"><svg xmlns="http://www.w3.org/2000/svg" xmlns:xlink="http://www.w3.org/1999/xlink" version="1.1" id="mdi-alpha-q-circle" width="24" height="24" viewBox="0 0 24 24"><path d="M12,2C17.52,2 22,6.48 22,12C22,17.52 17.52,22 12,22C6.48,22 2,17.52 2,12C2,6.48 6.48,2 12,2M11,7C9.9,7 9,7.9 9,9V15C9,16.1 9.9,17 11,17V19H13V17C14.1,17 15,16.1 15,15V9C15,7.9 14.1,7 13,7H11M11,9H13V15H11V9Z" /></svg>