<?xml version="1.0" encoding="UTF-8"?><!DOCTYPE svg PUBLIC "-//W3C//DTD SVG 1.1//EN" "http://www.w3.org/Graphics/SVG/1.1/DTD/svg11.dtd"><svg xmlns="http://www.w3.org/2000/svg" xmlns:xlink="http://www.w3.org/1999/xlink" version="1.1" width="24" height="24" viewBox="0 0 24 24"><path d="M4,2C2.9,2 2,2.9 2,4V14H4V4H14V2H4M8,6C6.9,6 6,6.9 6,8V18H8V8H18V6H8M20,12V20H12V12H20M20,10H12C10.9,10 10,10.9 10,12V20C10,21.1 10.9,22 12,22H20C21.1,22 22,21.1 22,20V12C22,10.9 21.1,10 20,10M14,13V19L18,16L14,13Z" /></svg>