<?xml version="1.0" encoding="UTF-8"?><!DOCTYPE svg PUBLIC "-//W3C//DTD SVG 1.1//EN" "http://www.w3.org/Graphics/SVG/1.1/DTD/svg11.dtd"><svg xmlns="http://www.w3.org/2000/svg" xmlns:xlink="http://www.w3.org/1999/xlink" version="1.1" id="mdi-arrow-down-circle-outline" width="24" height="24" viewBox="0 0 24 24"><path d="M11,6H13V14L16.5,10.5L17.92,11.92L12,17.84L6.08,11.92L7.5,10.5L11,14V6M12,22C6.48,22 2,17.52 2,12C2,6.48 6.48,2 12,2C17.52,2 22,6.48 22,12C22,17.52 17.52,22 12,22M12,20C16.42,20 20,16.42 20,12C20,7.58 16.42,4 12,4C7.58,4 4,7.58 4,12C4,16.42 7.58,20 12,20Z" /></svg>