<?xml version="1.0" encoding="UTF-8"?><!DOCTYPE svg PUBLIC "-//W3C//DTD SVG 1.1//EN" "http://www.w3.org/Graphics/SVG/1.1/DTD/svg11.dtd"><svg xmlns="http://www.w3.org/2000/svg" xmlns:xlink="http://www.w3.org/1999/xlink" version="1.1" id="mdi-atm" width="24" height="24" viewBox="0 0 24 24"><path d="M8,9V10.5H10.25V15H11.75V10.5H14V9H8M6,9H3C2.45,9 2,9.45 2,10V15H3.5V13.5H5.5V15H7V10C7,9.45 6.55,9 6,9M5.5,12H3.5V10.5H5.5V12M21,9H16.5C15.95,9 15.5,9.45 15.5,10V15H17V10.5H18V14H19.5V10.5H20.5V15H22V10C22,9.45 21.55,9 21,9Z" /></svg>