<?xml version="1.0" encoding="UTF-8"?><!DOCTYPE svg PUBLIC "-//W3C//DTD SVG 1.1//EN" "http://www.w3.org/Graphics/SVG/1.1/DTD/svg11.dtd"><svg xmlns="http://www.w3.org/2000/svg" xmlns:xlink="http://www.w3.org/1999/xlink" version="1.1" id="mdi-bell-alert-outline" width="24" height="24" viewBox="0 0 24 24"><path d="M10,21H14C14,22.1 13.1,23 12,23C10.9,23 10,22.1 10,21M21,19V20H3V19L5,17V11C5,7.9 7.03,5.17 10,4.29V4C10,2.9 10.9,2 12,2C13.1,2 14,2.9 14,4V4.29C16.97,5.17 19,7.9 19,11V17L21,19M17,11C17,8.24 14.76,6 12,6C9.24,6 7,8.24 7,11V18H17V11M11,8H13V12H11V8M11,14H13V16H11V14Z" /></svg>