<?xml version="1.0" encoding="UTF-8"?><!DOCTYPE svg PUBLIC "-//W3C//DTD SVG 1.1//EN" "http://www.w3.org/Graphics/SVG/1.1/DTD/svg11.dtd"><svg xmlns="http://www.w3.org/2000/svg" xmlns:xlink="http://www.w3.org/1999/xlink" version="1.1" width="24" height="24" viewBox="0 0 24 24"><path d="M18,22H6C4.9,22 4,21.1 4,20V4C4,2.89 4.9,2 6,2H7V9L9.5,7.5L12,9V2H18C19.1,2 20,2.9 20,4V20C20,21.1 19.1,22 18,22M16.41,19.83L17.83,18.41L16.41,17L17.83,15.59L16.41,14.17L15,15.59L13.59,14.17L12.17,15.59L13.59,17L12.17,18.41L13.59,19.83L15,18.41L16.41,19.83Z" /></svg>