<?xml version="1.0" encoding="UTF-8"?><!DOCTYPE svg PUBLIC "-//W3C//DTD SVG 1.1//EN" "http://www.w3.org/Graphics/SVG/1.1/DTD/svg11.dtd"><svg xmlns="http://www.w3.org/2000/svg" xmlns:xlink="http://www.w3.org/1999/xlink" version="1.1" id="mdi-cellphone-nfc" width="24" height="24" viewBox="0 0 24 24"><path d="M2,16V18C4.76,18 7,20.24 7,23H9C9,19.13 5.87,16 2,16M2,20V23H5C5,21.34 3.66,20 2,20M2,12V14C6.97,14 11,18.03 11,23H13C13,16.92 8.08,12 2,12M17,1H7C5.9,1 5,1.9 5,3V10.37C5.69,10.53 6.36,10.74 7,11V5H17V18H13.97C14.5,19.25 14.81,20.59 14.92,22H17C18.1,22 19,21.1 19,20V3C19,1.9 18.1,1 17,1Z" /></svg>