<?xml version="1.0" encoding="UTF-8"?><!DOCTYPE svg PUBLIC "-//W3C//DTD SVG 1.1//EN" "http://www.w3.org/Graphics/SVG/1.1/DTD/svg11.dtd"><svg xmlns="http://www.w3.org/2000/svg" xmlns:xlink="http://www.w3.org/1999/xlink" version="1.1" id="mdi-circle-slice-4" width="24" height="24" viewBox="0 0 24 24"><path d="M12,2C17.52,2 22,6.48 22,12C22,17.52 17.52,22 12,22C6.48,22 2,17.52 2,12C2,6.48 6.48,2 12,2M12,4C7.58,4 4,7.58 4,12C4,16.42 7.58,20 12,20C16.42,20 20,16.42 20,12C20,7.58 16.42,4 12,4M16.9,7.1C18.2,8.3 19,10.1 19,12C19,13.9 18.1,15.6 16.9,16.9C15.7,18.2 13.9,19 12,19V12L12,5C13.9,5 15.7,5.8 16.9,7.1Z" /></svg>