<?xml version="1.0" encoding="UTF-8"?><!DOCTYPE svg PUBLIC "-//W3C//DTD SVG 1.1//EN" "http://www.w3.org/Graphics/SVG/1.1/DTD/svg11.dtd"><svg xmlns="http://www.w3.org/2000/svg" xmlns:xlink="http://www.w3.org/1999/xlink" version="1.1" width="24" height="24" viewBox="0 0 24 24"><path d="M5,16V20H19V16H15.89L14.07,14.21L10.38,18.92L9.62,13.15L8.11,16H5M19,14.46V7H5V14.46H7.17L10.5,8.08L11.44,15.05L13.93,11.86L16.53,14.46H19M9,5C9,3.34 10.34,2 12,2C13.66,2 15,3.34 15,5H19C20.1,5 21,5.9 21,7V20C21,21.1 20.1,22 19,22H5C3.9,22 3,21.1 3,20V7C3,5.9 3.9,5 5,5H9M12,4C11.45,4 11,4.45 11,5C11,5.55 11.45,6 12,6C12.55,6 13,5.55 13,5C13,4.45 12.55,4 12,4Z" /></svg>