<?xml version="1.0" encoding="UTF-8"?><!DOCTYPE svg PUBLIC "-//W3C//DTD SVG 1.1//EN" "http://www.w3.org/Graphics/SVG/1.1/DTD/svg11.dtd"><svg xmlns="http://www.w3.org/2000/svg" xmlns:xlink="http://www.w3.org/1999/xlink" version="1.1" id="mdi-close-box-multiple-outline" width="24" height="24" viewBox="0 0 24 24"><path d="M21,17V3H7V17H21M21,1A2,2 0 0,1 23,3V17A2,2 0 0,1 21,19H7A2,2 0 0,1 5,17V3A2,2 0 0,1 7,1H21M3,5V21H19V23H3A2,2 0 0,1 1,21V5H3M17.6,15L14,11.4L10.4,15L9,13.6L12.6,10L9,6.4L10.4,5L14,8.6L17.6,5L19,6.4L15.4,10L19,13.6L17.6,15Z" /></svg>