<?xml version="1.0" encoding="UTF-8"?><!DOCTYPE svg PUBLIC "-//W3C//DTD SVG 1.1//EN" "http://www.w3.org/Graphics/SVG/1.1/DTD/svg11.dtd"><svg xmlns="http://www.w3.org/2000/svg" xmlns:xlink="http://www.w3.org/1999/xlink" version="1.1" id="mdi-console-network" width="24" height="24" viewBox="0 0 24 24"><path d="M17,3C18.1,3 19,3.9 19,5V15C19,16.1 18.1,17 17,17H13V19H14C14.55,19 15,19.45 15,20H22V22H15C15,22.55 14.55,23 14,23H10C9.45,23 9,22.55 9,22H2V20H9C9,19.45 9.45,19 10,19H11V17H7C5.9,17 5,16.1 5,15V5C5,3.9 5.9,3 7,3H17M7,7L11,11L7,15H9.85L13.13,11.72C13.5,11.33 13.5,10.7 13.13,10.3L9.83,7H7M17,13H14V15H17V13Z" /></svg>