<?xml version="1.0" encoding="UTF-8"?><!DOCTYPE svg PUBLIC "-//W3C//DTD SVG 1.1//EN" "http://www.w3.org/Graphics/SVG/1.1/DTD/svg11.dtd"><svg xmlns="http://www.w3.org/2000/svg" xmlns:xlink="http://www.w3.org/1999/xlink" version="1.1" id="mdi-console-network-outline" width="24" height="24" viewBox="0 0 24 24"><path d="M15,20C15,19.45 14.55,19 14,19H13V17H17C18.1,17 19,16.1 19,15V5C19,3.9 18.1,3 17,3H7C5.9,3 5,3.9 5,5V15C5,16.1 5.9,17 7,17H11V19H10C9.45,19 9,19.45 9,20H2V22H9C9,22.55 9.45,23 10,23H14C14.55,23 15,22.55 15,22H22V20H15M7,15V5H17V15H7M8,6.89L11.56,10.45L8,14H10.53L13.45,11.08C13.78,10.74 13.78,10.18 13.45,9.82L10.5,6.89H8M16,12.22H13.33V14H16V12.22Z" /></svg>