<?xml version="1.0" encoding="UTF-8"?><!DOCTYPE svg PUBLIC "-//W3C//DTD SVG 1.1//EN" "http://www.w3.org/Graphics/SVG/1.1/DTD/svg11.dtd"><svg xmlns="http://www.w3.org/2000/svg" xmlns:xlink="http://www.w3.org/1999/xlink" version="1.1" id="mdi-credit-card-refund" width="24" height="24" viewBox="0 0 24 24"><path d="M18,11H6C4.9,11 4,11.9 4,13V21C4,22.1 4.9,23 6,23H18C19.1,23 20,22.1 20,21V13C20,11.9 19.1,11 18,11M18,21H6V17H18V21M18,15H6V13H18V15M17,5V10H15.5V6.5H9.88L12.3,8.93L11.24,10L7,5.75L11.24,1.5L12.3,2.57L9.88,5H17Z" /></svg>