<?xml version="1.0" encoding="UTF-8"?><!DOCTYPE svg PUBLIC "-//W3C//DTD SVG 1.1//EN" "http://www.w3.org/Graphics/SVG/1.1/DTD/svg11.dtd"><svg xmlns="http://www.w3.org/2000/svg" xmlns:xlink="http://www.w3.org/1999/xlink" version="1.1" width="24" height="24" viewBox="0 0 24 24"><path d="M12.5,6.9C14.28,6.9 14.94,7.75 15,9H17.21C17.14,7.28 16.09,5.7 14,5.19V3H11V5.16C10.47,5.28 9.97,5.46 9.5,5.7L11,7.17C11.4,7 11.9,6.9 12.5,6.9M5.33,4.06L4.06,5.33L7.5,8.77C7.5,10.85 9.06,12 11.41,12.68L14.92,16.19C14.58,16.67 13.87,17.1 12.5,17.1C10.44,17.1 9.63,16.18 9.5,15H7.32C7.44,17.19 9.08,18.42 11,18.83V21H14V18.85C14.96,18.67 15.82,18.3 16.45,17.73L18.67,19.95L19.94,18.68L5.33,4.06Z" /></svg>