<?xml version="1.0" encoding="UTF-8"?><!DOCTYPE svg PUBLIC "-//W3C//DTD SVG 1.1//EN" "http://www.w3.org/Graphics/SVG/1.1/DTD/svg11.dtd"><svg xmlns="http://www.w3.org/2000/svg" xmlns:xlink="http://www.w3.org/1999/xlink" version="1.1" width="24" height="24" viewBox="0 0 24 24"><path d="M11.8,10.9C9.53,10.31 8.8,9.7 8.8,8.75C8.8,7.66 9.81,6.9 11.5,6.9C13.28,6.9 13.94,7.75 14,9H16.21C16.14,7.28 15.09,5.7 13,5.19V3H10V5.16C8.06,5.58 6.5,6.84 6.5,8.77C6.5,11.08 8.41,12.23 11.2,12.9C13.7,13.5 14.2,14.38 14.2,15.31C14.2,16 13.71,17.1 11.5,17.1C9.44,17.1 8.63,16.18 8.5,15H6.32C6.44,17.19 8.08,18.42 10,18.83V21H13V18.85C14.95,18.5 16.5,17.35 16.5,15.3C16.5,12.46 14.07,11.5 11.8,10.9Z" /></svg>