<?xml version="1.0" encoding="UTF-8"?><!DOCTYPE svg PUBLIC "-//W3C//DTD SVG 1.1//EN" "http://www.w3.org/Graphics/SVG/1.1/DTD/svg11.dtd"><svg xmlns="http://www.w3.org/2000/svg" xmlns:xlink="http://www.w3.org/1999/xlink" version="1.1" width="24" height="24" viewBox="0 0 24 24"><path d="M13.64,12.6C13.93,12.62 14.22,12.62 14.5,12.55L14.16,12.84C13.71,12.77 13.29,12.6 13.64,12.6M15.5,12.13C15.53,11.88 14.93,12.24 15.63,11.36C15.57,11.6 15,12.26 15.63,11.85C15.75,11.64 15.87,11.44 15.92,11.21C15.87,11.53 15.71,11.84 15.5,12.13M16.2,10.34C16.13,10.59 16.08,10.18 16,10.15C16.07,9.91 16.24,9.71 16.2,10.34M12.32,1.77C12.94,1.79 12.89,1.83 12.69,1.87L12.68,1.89L12.56,1.9L12.69,1.87C12.72,1.83 12.5,1.8 12.32,1.77M18.5,10.57L18.3,10.94C18.56,10.16 18.41,9.31 18.45,8.57L18.38,8.55C18.31,6.7 16.71,4.73 15.29,4.07C14.06,3.5 12.17,3.4 11.3,3.83C11.42,3.72 11.9,3.68 11.75,3.6C10.38,3.73 10.69,4.07 9.64,4.34C9.35,4.62 10.5,4.12 9.87,4.5C9.31,4.63 9.05,4.38 8.22,5.24C8.29,5.36 8.75,4.89 8.37,5.36C7.58,5.27 5.89,7.16 5.53,7.78L5.72,7.82C5.41,8.59 5,9.08 4.95,9.54C4.87,10.68 4.5,12.75 5.03,13.39L4.97,13.92L5.2,14.37L5.08,14.38C5.66,16.21 5.7,14.42 6.47,16.32C6.36,16.28 6.24,16.24 6.08,16C6.06,16.19 6.32,16.69 6.62,17.08L6.5,17.22C6.66,17.53 6.82,17.6 6.93,17.71C6.3,17.36 7.5,18.84 7.63,19.03L7.73,18.86C7.71,19.1 7.9,19.42 8.26,19.87L8.56,19.86C8.69,20.1 9.14,20.54 9.41,20.56L9.23,20.8C9.92,21 9.56,21.09 10.41,21.39L10.24,21.09C10.67,21.46 10.8,21.79 11.41,22.07C12.26,22.37 12.37,22.25 13.23,22.5C12.5,22.5 11.64,22.5 11.06,22.28C7.1,21.21 3.5,16.56 3.74,11.78C3.68,10.81 3.84,9.6 3.68,9.36C3.9,8.62 4.16,7.72 4.69,6.65C4.65,6.58 4.78,6.86 5.05,6.41C5.21,6.05 5.34,5.66 5.55,5.31L5.65,5.28C5.76,4.67 7.08,3.73 7.5,3.26V3.44C8.36,2.63 9.9,2.09 10.76,1.71C10.53,1.96 11.27,1.68 11.8,1.65L11.31,1.93C11.94,1.77 11.91,2 12.56,1.9C12.33,1.93 12.06,2 12.1,2.06C12.82,2.14 12.94,1.84 13.61,2.06L13.56,1.86C14.5,2.2 14.69,2.14 15.7,2.68C16.06,2.69 16.1,2.46 16.63,2.68C16.73,2.84 16.61,2.87 17.27,3.27C17.34,3.24 17.14,3.05 17,2.9C18.3,3.61 19.75,5.12 20.18,6.74C19.77,6 20.14,7.13 20,7.07C20.18,7.56 20.33,8.07 20.43,8.6C20.31,8.17 20.04,7.12 19.57,6.45C19.54,6.88 18.97,6.15 19.28,7.11C19.5,7.45 19.33,6.76 19.62,7.36C19.62,7.65 19.73,7.94 19.8,8.31C19.7,8.29 19.58,7.9 19.5,8C19.6,8.5 19.77,8.72 19.83,8.76C19.8,8.84 19.71,8.68 19.71,9C19.75,9.74 19.92,9.43 20,9.46C19.91,9.83 19.59,10.25 19.75,10.88L19.55,10.32C19.5,10.85 19.66,10.95 19.42,11.6C19.6,11 19.58,10.5 19.41,10.75C19.5,11.57 18.76,12.2 18.83,12.73L18.62,12.44C18.05,13.27 18.61,12.89 18.22,13.5C18.36,13.27 18.15,13.42 18.33,13.14C18.21,13.15 17.78,13.67 17.39,13.97C15.85,15.2 14,15.37 12.24,14.7H12.23C12.24,14.66 12.23,14.61 12.11,14.53C10.6,13.38 9.71,12.4 10,10.12C10.25,9.95 10.31,9 10.84,8.67C11.16,7.96 12.12,7.31 13.15,7.29C14.2,7.23 15.09,7.85 15.54,8.43C14.72,7.68 13.4,7.45 12.26,8C11.11,8.53 10.42,9.8 10.5,11.07C10.56,11 10.6,11.05 10.62,10.89C10.59,13.36 13.28,15.17 15.22,14.26L15.25,14.31C16.03,14.09 15.93,13.92 16.44,13.56C16.4,13.65 16.1,13.86 16.28,13.86C16.53,13.8 17.31,13.07 17.7,12.73C17.87,12.35 17.6,12.5 17.85,12.04L18.15,11.89C18.32,11.41 18.5,11.14 18.5,10.57M12.23,14.72C12.24,14.81 12.58,15.07 12.84,15.21C13.5,15.46 14.28,15.47 14.88,15.45C13.58,16 11.09,14.89 10.28,13.43C10.46,13.47 11.09,14.46 11.57,14.62C11.29,14.4 11.07,14.11 10.87,13.82C11.25,14.25 11.71,14.6 12.21,14.84L12.23,14.72M9.84,13.07L10.5,14.21C10.2,13.96 10,13.63 9.79,13.32L9.84,13.07M10.38,13.05L10.5,13.37C10.34,13.12 10.19,12.88 10.11,12.6L10.38,13.05M19.95,10.97V10.97C19.86,11.69 19.63,12.39 19.29,13.04C19.6,12.42 19.8,11.77 19.9,11.1L19.95,10.97V10.97H19.95M12.39,1.6L12.25,1.58L13.22,1.5C12.97,1.56 12.62,1.5 12.39,1.6M4.13,6.03C4.16,6.16 4.46,5.82 4.22,6.36C3.76,6.69 4.17,6.5 4.13,6.03M3.57,8.32C3.6,8.06 3.44,8 3.74,7.59L3.57,8.32Z" /></svg>