<?xml version="1.0" encoding="UTF-8"?><!DOCTYPE svg PUBLIC "-//W3C//DTD SVG 1.1//EN" "http://www.w3.org/Graphics/SVG/1.1/DTD/svg11.dtd"><svg xmlns="http://www.w3.org/2000/svg" xmlns:xlink="http://www.w3.org/1999/xlink" version="1.1" width="24" height="24" viewBox="0 0 24 24"><path d="M16.56,12.66C16.56,13.23 16.5,13.71 16.38,14.12C16.25,14.53 16.08,14.87 15.86,15.13C15.63,15.39 15.36,15.59 15.05,15.71C14.73,15.83 14.39,15.9 14,15.9C13.62,15.9 13.28,15.83 12.96,15.71C12.65,15.59 12.38,15.39 12.15,15.13C11.93,14.87 11.75,14.53 11.63,14.12C11.5,13.71 11.44,13.23 11.44,12.66V11.34C11.44,10.77 11.5,10.28 11.62,9.87C11.75,9.46 11.92,9.13 12.15,8.87C12.37,8.6 12.64,8.41 12.95,8.29C13.27,8.16 13.61,8.1 14,8.1C14.38,8.1 14.72,8.16 15.04,8.29C15.35,8.41 15.62,8.6 15.85,8.87C16.07,9.13 16.25,9.46 16.38,9.87C16.5,10.28 16.56,10.77 16.56,11.34V12.66M15.06,11.13L15,10.28L14.78,9.72C14.69,9.58 14.57,9.5 14.44,9.42L14,9.32L13.55,9.42C13.42,9.5 13.31,9.58 13.22,9.72L13,10.28L12.94,11.13V12.85L13,13.71L13.22,14.28C13.31,14.42 13.43,14.53 13.56,14.59L14,14.68L14.45,14.59C14.59,14.53 14.7,14.42 14.78,14.28L15,13.71L15.06,12.85V11.13M21.5,10.8C22.1,11.5 22.1,12.5 21.5,13.2L13.2,21.5C12.5,22.2 11.5,22.2 10.8,21.5L2.5,13.2C1.8,12.5 1.8,11.5 2.5,10.8L10.8,2.5C11.5,1.8 12.5,1.8 13.2,2.5L21.5,10.8M20.3,12L12,3.7L3.7,12L12,20.3L20.3,12M10.38,15.79H8.88V10L7.08,10.55V9.32L10.22,8.2H10.38V15.79Z" /></svg>