<?xml version="1.0" encoding="UTF-8"?><!DOCTYPE svg PUBLIC "-//W3C//DTD SVG 1.1//EN" "http://www.w3.org/Graphics/SVG/1.1/DTD/svg11.dtd"><svg xmlns="http://www.w3.org/2000/svg" xmlns:xlink="http://www.w3.org/1999/xlink" version="1.1" id="mdi-email-open-multiple-outline" width="24" height="24" viewBox="0 0 24 24"><path d="M14,15.36L6,10.36V18H22V10.36L14,15.36M6,8L14,13L22,8V8L14,3L6,8V8M24,8V18C24,19.1 23.1,20 22,20H6C4.9,20 4,19.1 4,18V8C4,7.27 4.39,6.64 4.97,6.29L14,0.64L23.03,6.29C23.61,6.64 24,7.27 24,8M2,8V22H20V24H2C0.9,24 0,23.1 0,22V8H2Z" /></svg>