<?xml version="1.0" encoding="UTF-8"?><!DOCTYPE svg PUBLIC "-//W3C//DTD SVG 1.1//EN" "http://www.w3.org/Graphics/SVG/1.1/DTD/svg11.dtd"><svg xmlns="http://www.w3.org/2000/svg" xmlns:xlink="http://www.w3.org/1999/xlink" version="1.1" id="mdi-emoticon" width="24" height="24" viewBox="0 0 24 24"><path d="M12,2C6.47,2 2,6.5 2,12C2,17.52 6.48,22 12,22C17.52,22 22,17.52 22,12C22,6.48 17.52,2 12,2M15.5,8C16.33,8 17,8.67 17,9.5C17,10.33 16.33,11 15.5,11C14.67,11 14,10.33 14,9.5C14,8.67 14.67,8 15.5,8M8.5,8C9.33,8 10,8.67 10,9.5C10,10.33 9.33,11 8.5,11C7.67,11 7,10.33 7,9.5C7,8.67 7.67,8 8.5,8M12,17.5C9.67,17.5 7.69,16.04 6.89,14H17.11C16.3,16.04 14.33,17.5 12,17.5Z" /></svg>