<?xml version="1.0" encoding="UTF-8"?><!DOCTYPE svg PUBLIC "-//W3C//DTD SVG 1.1//EN" "http://www.w3.org/Graphics/SVG/1.1/DTD/svg11.dtd"><svg xmlns="http://www.w3.org/2000/svg" xmlns:xlink="http://www.w3.org/1999/xlink" version="1.1" id="mdi-file-music" width="24" height="24" viewBox="0 0 24 24"><path d="M14,2H6C4.9,2 4,2.9 4,4V20C4,21.1 4.9,22 6,22H18C19.1,22 20,21.1 20,20V8L14,2M13,13H11V18C11,19.1 10.1,20 9,20C7.9,20 7,19.1 7,18C7,16.9 7.9,16 9,16C9.4,16 9.7,16.1 10,16.3V11H13V13M13,9V3.5L18.5,9H13Z" /></svg>