<?xml version="1.0" encoding="UTF-8"?><!DOCTYPE svg PUBLIC "-//W3C//DTD SVG 1.1//EN" "http://www.w3.org/Graphics/SVG/1.1/DTD/svg11.dtd"><svg xmlns="http://www.w3.org/2000/svg" xmlns:xlink="http://www.w3.org/1999/xlink" version="1.1" id="mdi-file-replace-outline" width="24" height="24" viewBox="0 0 24 24"><path d="M14,3L12,1H4C2.9,1 2,1.9 2,3V15C2,16.1 2.9,17 4,17H11V19L15,16L11,13V15H4V3H14M21,10V21C21,22.1 20.1,23 19,23H8C6.9,23 6,22.1 6,21V19H8V21H19V12H14V7H8V13H6V7C6,5.9 6.9,5 8,5H16L21,10Z" /></svg>