<?xml version="1.0" encoding="UTF-8"?><!DOCTYPE svg PUBLIC "-//W3C//DTD SVG 1.1//EN" "http://www.w3.org/Graphics/SVG/1.1/DTD/svg11.dtd"><svg xmlns="http://www.w3.org/2000/svg" xmlns:xlink="http://www.w3.org/1999/xlink" version="1.1" id="mdi-file-music-outline" width="24" height="24" viewBox="0 0 24 24"><path d="M14,2L20,8V20C20,21.1 19.1,22 18,22H6C4.9,22 4,21.1 4,20V4C4,2.9 4.9,2 6,2H14M18,20V9H13V4H6V20H18M13,10V12H11V17C11,18.1 10.1,19 9,19C7.9,19 7,18.1 7,17C7,15.9 7.9,15 9,15C9.4,15 9.7,15.1 10,15.3V10H13Z" /></svg>