<?xml version="1.0" encoding="UTF-8"?><!DOCTYPE svg PUBLIC "-//W3C//DTD SVG 1.1//EN" "http://www.w3.org/Graphics/SVG/1.1/DTD/svg11.dtd"><svg xmlns="http://www.w3.org/2000/svg" xmlns:xlink="http://www.w3.org/1999/xlink" version="1.1" id="mdi-file-image-outline" width="24" height="24" viewBox="0 0 24 24"><path d="M14,2L20,8V20C20,21.1 19.1,22 18,22H6C4.9,22 4,21.1 4,20V4C4,2.9 4.9,2 6,2H14M18,20V9H13V4H6V20H18M17,13V19H7L12,14L14,16M10,10.5C10,11.33 9.33,12 8.5,12C7.67,12 7,11.33 7,10.5C7,9.67 7.67,9 8.5,9C9.33,9 10,9.67 10,10.5Z" /></svg>