<?xml version="1.0" encoding="UTF-8"?><!DOCTYPE svg PUBLIC "-//W3C//DTD SVG 1.1//EN" "http://www.w3.org/Graphics/SVG/1.1/DTD/svg11.dtd"><svg xmlns="http://www.w3.org/2000/svg" xmlns:xlink="http://www.w3.org/1999/xlink" version="1.1" id="mdi-folder-remove-outline" width="24" height="24" viewBox="0 0 24 24"><path d="M11.46,10.88L12.88,9.46L15,11.59L17.12,9.46L18.54,10.88L16.41,13L18.54,15.12L17.12,16.54L15,14.41L12.88,16.54L11.46,15.12L13.59,13L11.46,10.88M20,6C21.1,6 22,6.9 22,8V18C22,19.1 21.1,20 20,20H4C2.9,20 2,19.1 2,18V6C2,4.9 2.9,4 4,4H10L12,6H20M20,18V8H11.17L9.17,6H4V18H20Z" /></svg>