<?xml version="1.0" encoding="UTF-8"?><!DOCTYPE svg PUBLIC "-//W3C//DTD SVG 1.1//EN" "http://www.w3.org/Graphics/SVG/1.1/DTD/svg11.dtd"><svg xmlns="http://www.w3.org/2000/svg" xmlns:xlink="http://www.w3.org/1999/xlink" version="1.1" id="mdi-gamepad-square-outline" width="24" height="24" viewBox="0 0 24 24"><path d="M21,6H3C1.9,6 1,6.9 1,8V16C1,17.1 1.9,18 3,18H21C22.1,18 23,17.1 23,16V8C23,6.9 22.1,6 21,6M21,16H3V8H21M6,15H8V13H10V11H8V9H6V11H4V13H6M14.5,12C15.33,12 16,12.67 16,13.5C16,14.33 15.33,15 14.5,15C13.67,15 13,14.33 13,13.5C13,12.67 13.67,12 14.5,12M18.5,9C19.33,9 20,9.67 20,10.5C20,11.33 19.33,12 18.5,12C17.67,12 17,11.33 17,10.5C17,9.67 17.67,9 18.5,9Z" /></svg>