<?xml version="1.0" encoding="UTF-8"?><!DOCTYPE svg PUBLIC "-//W3C//DTD SVG 1.1//EN" "http://www.w3.org/Graphics/SVG/1.1/DTD/svg11.dtd"><svg xmlns="http://www.w3.org/2000/svg" xmlns:xlink="http://www.w3.org/1999/xlink" version="1.1" id="mdi-gamepad-round-up" width="24" height="24" viewBox="0 0 24 24"><path d="M4,8H8V4C8,2.9 8.9,2 10,2H14C15.1,2 16,2.9 16,4V8H20C21.1,8 22,8.9 22,10V14C22,15.1 21.1,16 20,16H16V20C16,21.1 15.1,22 14,22H10C8.9,22 8,21.1 8,20V16H4C2.9,16 2,15.1 2,14V10C2,8.9 2.9,8 4,8M10,4V8H14V4H10Z" /></svg>