<?xml version="1.0" encoding="UTF-8"?><!DOCTYPE svg PUBLIC "-//W3C//DTD SVG 1.1//EN" "http://www.w3.org/Graphics/SVG/1.1/DTD/svg11.dtd"><svg xmlns="http://www.w3.org/2000/svg" xmlns:xlink="http://www.w3.org/1999/xlink" version="1.1" width="24" height="24" viewBox="0 0 24 24"><path d="M4.2,3C3.57,3 3.05,3.5 3,4.11C3,8.66 3,13.24 3,17.8C3,18.46 3.54,19 4.2,19C4.31,19 4.42,19 4.53,18.95C8.5,16.84 12.56,14.38 16.5,12.08C16.94,11.89 17.21,11.46 17.21,11C17.21,10.57 17,10.17 16.6,9.96C12.5,7.56 8.21,5.07 4.53,3.05C4.42,3 4.31,3 4.2,3M19.87,6C19.76,6 19.65,6 19.54,6.05C18.6,6.57 17.53,7.18 16.5,7.75C16.85,7.95 17.19,8.14 17.5,8.33C18.5,8.88 19.07,9.9 19.07,11V11C19.07,12.18 18.38,13.27 17.32,13.77C15.92,14.59 12.92,16.36 11.32,17.29C14.07,18.89 16.82,20.5 19.54,21.95C19.65,22 19.76,22 19.87,22C20.54,22 21.07,21.46 21.07,20.8C21.07,16.24 21.08,11.66 21.07,7.11C21,6.5 20.5,6 19.87,6Z" /></svg>