<?xml version="1.0" encoding="UTF-8"?><!DOCTYPE svg PUBLIC "-//W3C//DTD SVG 1.1//EN" "http://www.w3.org/Graphics/SVG/1.1/DTD/svg11.dtd"><svg xmlns="http://www.w3.org/2000/svg" xmlns:xlink="http://www.w3.org/1999/xlink" version="1.1" width="24" height="24" viewBox="0 0 24 24"><path d="M20,2C21.1,2 22,2.9 22,4V20C22,21.1 21.1,22 20,22H4C2.9,22 2,21.1 2,20V4C2,2.89 2.9,2 4,2H20M20,12H18V10H17V12H15V13H17V15H18V13H20V12M9,11.29V13H11.86C11.71,13.71 11,15.14 9,15.14C7.29,15.14 5.93,13.71 5.93,12C5.93,10.29 7.29,8.86 9,8.86C10,8.86 10.64,9.29 11,9.64L12.36,8.36C11.5,7.5 10.36,7 9,7C6.21,7 4,9.21 4,12C4,14.79 6.21,17 9,17C11.86,17 13.79,15 13.79,12.14C13.79,11.79 13.79,11.57 13.71,11.29H9Z" /></svg>