<?xml version="1.0" encoding="UTF-8"?><!DOCTYPE svg PUBLIC "-//W3C//DTD SVG 1.1//EN" "http://www.w3.org/Graphics/SVG/1.1/DTD/svg11.dtd"><svg xmlns="http://www.w3.org/2000/svg" xmlns:xlink="http://www.w3.org/1999/xlink" version="1.1" width="24" height="24" viewBox="0 0 24 24"><path d="M15,8H13V6H15V8M22,19V21H15C15,21.55 14.55,22 14,22H10C9.45,22 9,21.55 9,21H2V19H9C9,18.45 9.45,18 10,18H11V16H7C5.9,16 5,15.1 5,14V4C5,2.9 5.9,2 7,2H17C18.1,2 19,2.9 19,4V14C19,15.1 18.1,16 17,16H13V18H14C14.55,18 15,18.45 15,19H22M9,4H7V14H9V4M11,14H13V10H15C16.1,10 17,9.1 17,8V6C17,4.9 16.1,4 15,4H11V14Z" /></svg>