<?xml version="1.0" encoding="UTF-8"?><!DOCTYPE svg PUBLIC "-//W3C//DTD SVG 1.1//EN" "http://www.w3.org/Graphics/SVG/1.1/DTD/svg11.dtd"><svg xmlns="http://www.w3.org/2000/svg" xmlns:xlink="http://www.w3.org/1999/xlink" version="1.1" width="24" height="24" viewBox="0 0 24 24"><path d="M12,2C12.87,2 13.58,2.71 13.58,3.58C13.58,4.45 12.87,5.16 12,5.16C11.13,5.16 10.42,4.45 10.42,3.58C10.42,2.71 11.13,2 12,2M7.79,3.05C8.66,3.05 9.37,3.76 9.37,4.63C9.37,5.5 8.66,6.21 7.79,6.21C6.92,6.21 6.21,5.5 6.21,4.63C6.21,3.76 6.92,3.05 7.79,3.05M16.21,3.05C17.08,3.05 17.79,3.76 17.79,4.63C17.79,5.5 17.08,6.21 16.21,6.21C15.34,6.21 14.63,5.5 14.63,4.63C14.63,3.76 15.34,3.05 16.21,3.05M11.8,10.95C9.7,8.84 10.22,7.79 10.22,7.79H13.91C13.91,9.37 11.8,10.95 11.8,10.95M13.91,21.47C13.91,21.47 13.91,19.37 9.7,15.16C5.5,10.95 4.96,9.89 4.43,6.74C4.43,6.74 4.83,6.21 5.36,6.74C5.88,7.26 7.07,7.66 8.12,7.66C8.12,7.66 9.17,10.95 12.07,13.05C12.07,13.05 15.88,9.11 15.88,7.53C15.88,7.53 17.07,7.79 18.5,6.74C18.5,6.74 19.5,6.21 19.57,6.74C19.7,7.79 18.64,11.47 14.3,15.16C14.3,15.16 17.07,18.32 16.8,21.47H13.91M9.17,16.21L11.41,18.71C10.36,19.76 10.22,22 10.22,22H7.07C7.59,17.79 9.17,16.21 9.17,16.21Z" /></svg>