<?xml version="1.0" encoding="UTF-8"?><!DOCTYPE svg PUBLIC "-//W3C//DTD SVG 1.1//EN" "http://www.w3.org/Graphics/SVG/1.1/DTD/svg11.dtd"><svg xmlns="http://www.w3.org/2000/svg" xmlns:xlink="http://www.w3.org/1999/xlink" version="1.1" id="mdi-leak" width="24" height="24" viewBox="0 0 24 24"><path d="M6,3H3V6C4.66,6 6,4.66 6,3M14,3H12C12,7.97 7.97,12 3,12V14C9.08,14 14,9.07 14,3M10,3H8C8,5.76 5.76,8 3,8V10C6.87,10 10,6.87 10,3M10,21H12C12,16.03 16.03,12 21,12V10C14.92,10 10,14.92 10,21M18,21H21V18C19.34,18 18,19.34 18,21M14,21H16C16,18.24 18.24,16 21,16V14C17.13,14 14,17.13 14,21Z" /></svg>