<?xml version="1.0" encoding="UTF-8"?><!DOCTYPE svg PUBLIC "-//W3C//DTD SVG 1.1//EN" "http://www.w3.org/Graphics/SVG/1.1/DTD/svg11.dtd"><svg xmlns="http://www.w3.org/2000/svg" xmlns:xlink="http://www.w3.org/1999/xlink" version="1.1" id="mdi-link-plus" width="24" height="24" viewBox="0 0 24 24"><path d="M7,7H11V9H7C5.34,9 4,10.34 4,12C4,13.66 5.34,15 7,15H11V17H7C4.24,17 2,14.76 2,12C2,9.24 4.24,7 7,7M17,7C19.76,7 22,9.24 22,12H20C20,10.34 18.66,9 17,9H13V7H17M8,11H16V13H8V11M17,12H19V15H22V17H19V20H17V17H14V15H17V12Z" /></svg>