<?xml version="1.0" encoding="UTF-8"?><!DOCTYPE svg PUBLIC "-//W3C//DTD SVG 1.1//EN" "http://www.w3.org/Graphics/SVG/1.1/DTD/svg11.dtd"><svg xmlns="http://www.w3.org/2000/svg" xmlns:xlink="http://www.w3.org/1999/xlink" version="1.1" id="mdi-loop" width="24" height="24" viewBox="0 0 24 24"><path d="M9,14V21H2V19H5.57C4,17.3 3,15 3,12.5A9.5,9.5 0 0,1 12.5,3A9.5,9.5 0 0,1 22,12.5A9.5,9.5 0 0,1 12.5,22H12V20H12.5A7.5,7.5 0 0,0 20,12.5A7.5,7.5 0 0,0 12.5,5A7.5,7.5 0 0,0 5,12.5C5,14.47 5.76,16.26 7,17.6V14H9Z" /></svg>