<?xml version="1.0" encoding="UTF-8"?><!DOCTYPE svg PUBLIC "-//W3C//DTD SVG 1.1//EN" "http://www.w3.org/Graphics/SVG/1.1/DTD/svg11.dtd"><svg xmlns="http://www.w3.org/2000/svg" xmlns:xlink="http://www.w3.org/1999/xlink" version="1.1" id="mdi-mailbox-up-outline" width="24" height="24" viewBox="0 0 24 24"><path d="M17,4H7C4.24,4 2,6.24 2,9V20H20C21.1,20 22,19.1 22,18V9C22,6.24 19.76,4 17,4M10,18H4V9C4,7.34 5.34,6 7,6C8.66,6 10,7.34 10,9V18M20,18H12V9C12,7.92 11.65,6.86 11,6H17C18.66,6 20,7.34 20,9V18M13,13H15V9H17V7H13V13M9,11H5V9H9V11Z" /></svg>