<?xml version="1.0" encoding="UTF-8"?><!DOCTYPE svg PUBLIC "-//W3C//DTD SVG 1.1//EN" "http://www.w3.org/Graphics/SVG/1.1/DTD/svg11.dtd"><svg xmlns="http://www.w3.org/2000/svg" xmlns:xlink="http://www.w3.org/1999/xlink" version="1.1" id="mdi-map-marker-alert-outline" width="24" height="24" viewBox="0 0 24 24"><path d="M12,2C15.87,2 19,5.13 19,9C19,14.25 12,22 12,22C12,22 5,14.25 5,9C5,5.13 8.13,2 12,2M12,4C9.24,4 7,6.24 7,9C7,10 7,12 12,18.71C17,12 17,10 17,9C17,6.24 14.76,4 12,4M11,6H13V11H11V6M11,13H13V15H11V13Z" /></svg>