<?xml version="1.0" encoding="UTF-8"?><!DOCTYPE svg PUBLIC "-//W3C//DTD SVG 1.1//EN" "http://www.w3.org/Graphics/SVG/1.1/DTD/svg11.dtd"><svg xmlns="http://www.w3.org/2000/svg" xmlns:xlink="http://www.w3.org/1999/xlink" version="1.1" id="mdi-music-circle-outline" width="24" height="24" viewBox="0 0 24 24"><path d="M16,9H13V14.5C13,15.88 11.88,17 10.5,17C9.12,17 8,15.88 8,14.5C8,13.12 9.12,12 10.5,12C11.07,12 11.58,12.19 12,12.5V7H16V9M12,2C17.52,2 22,6.48 22,12C22,17.52 17.52,22 12,22C6.48,22 2,17.52 2,12C2,6.48 6.48,2 12,2M12,4C7.58,4 4,7.58 4,12C4,16.42 7.58,20 12,20C16.42,20 20,16.42 20,12C20,7.58 16.42,4 12,4Z" /></svg>