<?xml version="1.0" encoding="UTF-8"?><!DOCTYPE svg PUBLIC "-//W3C//DTD SVG 1.1//EN" "http://www.w3.org/Graphics/SVG/1.1/DTD/svg11.dtd"><svg xmlns="http://www.w3.org/2000/svg" xmlns:xlink="http://www.w3.org/1999/xlink" version="1.1" id="mdi-numeric-9-circle" width="24" height="24" viewBox="0 0 24 24"><path d="M12,2C17.52,2 22,6.48 22,12C22,17.52 17.52,22 12,22C6.48,22 2,17.52 2,12C2,6.48 6.48,2 12,2M13,17C14.1,17 15,16.1 15,15V9C15,7.9 14.1,7 13,7H11C9.9,7 9,7.9 9,9V11C9,12.1 9.9,13 11,13H13V15H9V17H13M13,11H11V9H13V11Z" /></svg>