<?xml version="1.0" encoding="UTF-8"?><!DOCTYPE svg PUBLIC "-//W3C//DTD SVG 1.1//EN" "http://www.w3.org/Graphics/SVG/1.1/DTD/svg11.dtd"><svg xmlns="http://www.w3.org/2000/svg" xmlns:xlink="http://www.w3.org/1999/xlink" version="1.1" id="mdi-page-previous-outline" width="24" height="24" viewBox="0 0 24 24"><path d="M2,3H19C20.1,3 21,3.9 21,5V9H19V5H2V19H19V15H21V19C21,20.1 20.1,21 19,21H2C0.9,21 0,20.1 0,19V5C0,3.9 0.9,3 2,3M17,15V13H24V11H17V9L13,12L17,15M4,13H11V11H4V13M4,9H11V7H4V9M4,17H8V15H4V17Z" /></svg>