<?xml version="1.0" encoding="UTF-8"?><!DOCTYPE svg PUBLIC "-//W3C//DTD SVG 1.1//EN" "http://www.w3.org/Graphics/SVG/1.1/DTD/svg11.dtd"><svg xmlns="http://www.w3.org/2000/svg" xmlns:xlink="http://www.w3.org/1999/xlink" version="1.1" id="mdi-passport-biometric" width="24" height="24" viewBox="0 0 24 24"><path d="M4,4C2.9,4 2,4.9 2,6V11H8.13C8.59,9.24 10.18,8 12,8C13.82,8 15.41,9.24 15.87,11H22V6C22,4.9 21.1,4 20,4H4M12,10C10.9,10 10,10.9 10,12C10,13.1 10.9,14 12,14C13.1,14 14,13.1 14,12C14,10.9 13.1,10 12,10M2,13V18C2,19.1 2.9,20 4,20H20C21.1,20 22,19.1 22,18V13H15.87C15.41,14.76 13.82,16 12,16C10.18,16 8.59,14.76 8.13,13H2Z" /></svg>