<?xml version="1.0" encoding="UTF-8"?><!DOCTYPE svg PUBLIC "-//W3C//DTD SVG 1.1//EN" "http://www.w3.org/Graphics/SVG/1.1/DTD/svg11.dtd"><svg xmlns="http://www.w3.org/2000/svg" xmlns:xlink="http://www.w3.org/1999/xlink" version="1.1" id="mdi-set-top-box" width="24" height="24" viewBox="0 0 24 24"><path d="M5,15.5C5,15.78 4.78,16 4.5,16H3.5C3.22,16 3,15.78 3,15.5V15H2C1.45,15 1,14.55 1,14V11C1,10.45 1.45,10 2,10H22C22.55,10 23,10.45 23,11V14C23,14.55 22.55,15 22,15H21V15.5C21,15.78 20.78,16 20.5,16H19.5C19.22,16 19,15.78 19,15.5V15H5V15.5M3,12V13H5V12H3M6,12V13H8V12H6M20.5,11.5C19.95,11.5 19.5,11.95 19.5,12.5C19.5,13.05 19.95,13.5 20.5,13.5C21.05,13.5 21.5,13.05 21.5,12.5C21.5,11.95 21.05,11.5 20.5,11.5Z" /></svg>