<?xml version="1.0" encoding="UTF-8"?><!DOCTYPE svg PUBLIC "-//W3C//DTD SVG 1.1//EN" "http://www.w3.org/Graphics/SVG/1.1/DTD/svg11.dtd"><svg xmlns="http://www.w3.org/2000/svg" xmlns:xlink="http://www.w3.org/1999/xlink" version="1.1" id="mdi-shield-key" width="24" height="24" viewBox="0 0 24 24"><path d="M12,8C12.55,8 13,8.45 13,9C13,9.55 12.55,10 12,10C11.45,10 11,9.55 11,9C11,8.45 11.45,8 12,8M21,11C21,16.55 17.16,21.74 12,23C6.84,21.74 3,16.55 3,11V5L12,1L21,5V11M12,6C10.34,6 9,7.34 9,9C9,10.31 9.83,11.42 11,11.83V18H13V16H15V14H13V11.83C14.17,11.42 15,10.31 15,9C15,7.34 13.66,6 12,6Z" /></svg>