<?xml version="1.0" encoding="UTF-8"?><!DOCTYPE svg PUBLIC "-//W3C//DTD SVG 1.1//EN" "http://www.w3.org/Graphics/SVG/1.1/DTD/svg11.dtd"><svg xmlns="http://www.w3.org/2000/svg" xmlns:xlink="http://www.w3.org/1999/xlink" version="1.1" width="24" height="24" viewBox="0 0 24 24"><path d="M15,21H17V19H15M11,21H13V19H11M19,13H21V11H19M19,21C20.1,21 21,20.1 21,19H19M7,5H9V3H7M19,17H21V15H19M19,3H11V9H21V5C21,3.89 20.1,3 19,3M5,21V19H3C3,20.1 3.9,21 5,21M3,17H5V15H3M7,21H9V19H7M3,5H5V3C3.89,3 3,3.89 3,5M3,13H5V11H3M3,9H5V7H3V9Z" /></svg>