<?xml version="1.0" encoding="UTF-8"?><!DOCTYPE svg PUBLIC "-//W3C//DTD SVG 1.1//EN" "http://www.w3.org/Graphics/SVG/1.1/DTD/svg11.dtd"><svg xmlns="http://www.w3.org/2000/svg" xmlns:xlink="http://www.w3.org/1999/xlink" version="1.1" width="24" height="24" viewBox="0 0 24 24"><path d="M7.46,11.88L8.88,10.46L11,12.59L13.12,10.46L14.54,11.88L12.41,14L14.54,16.12L13.12,17.54L11,15.41L8.88,17.54L7.46,16.12L9.59,14L7.46,11.88M3,3H21C22.1,3 23,3.9 23,5V19C23,20.1 22.1,21 21,21H3C1.9,21 1,20.1 1,19V5C1,3.9 1.9,3 3,3M3,5V19H21V9H13V5H3Z" /></svg>