<?xml version="1.0" encoding="UTF-8"?><!DOCTYPE svg PUBLIC "-//W3C//DTD SVG 1.1//EN" "http://www.w3.org/Graphics/SVG/1.1/DTD/svg11.dtd"><svg xmlns="http://www.w3.org/2000/svg" xmlns:xlink="http://www.w3.org/1999/xlink" version="1.1" width="24" height="24" viewBox="0 0 24 24"><path d="M17,2H3C1.9,2 1,2.9 1,4V16C1,17.1 1.9,18 3,18H8.26C7.82,17.39 7.5,16.72 7.26,16H3V12H7.29C7.5,11.28 7.85,10.61 8.29,10H3V6H9V9.11C9.57,8.5 10.25,8.03 11,7.68V6H17V7.68C17.75,8.03 18.43,8.5 19,9.11V4C19,2.9 18.1,2 17,2M22.71,21.29L18.17,16.75C19.69,14.45 19.06,11.34 16.75,9.82C14.45,8.3 11.34,8.94 9.82,11.24C8.3,13.55 8.94,16.65 11.24,18.17C12.91,19.27 15.08,19.27 16.75,18.17L21.29,22.71L22.71,21.29M14,17C12.34,17 11,15.66 11,14C11,12.34 12.34,11 14,11C15.66,11 17,12.34 17,14C17,15.66 15.66,17 14,17Z" /></svg>