<?xml version="1.0" encoding="UTF-8"?><!DOCTYPE svg PUBLIC "-//W3C//DTD SVG 1.1//EN" "http://www.w3.org/Graphics/SVG/1.1/DTD/svg11.dtd"><svg xmlns="http://www.w3.org/2000/svg" xmlns:xlink="http://www.w3.org/1999/xlink" version="1.1" width="24" height="24" viewBox="0 0 24 24"><path d="M5,10H3V6C3,4.9 3.9,4 5,4H11V6H5V10M19,18H13V20H19C20.1,20 21,19.1 21,18V14H19V18M5,18V14H3V18C3,19.1 3.9,20 5,20H11V18H5M19,4H13V6H19V10H21V6C21,4.9 20.1,4 19,4M8,13V15L11,12L8,9V11H3V13H8M16,11V9L13,12L16,15V13H21V11H16Z" /></svg>