<?xml version="1.0" encoding="UTF-8"?><!DOCTYPE svg PUBLIC "-//W3C//DTD SVG 1.1//EN" "http://www.w3.org/Graphics/SVG/1.1/DTD/svg11.dtd"><svg xmlns="http://www.w3.org/2000/svg" xmlns:xlink="http://www.w3.org/1999/xlink" version="1.1" id="mdi-tape-measure" width="24" height="24" viewBox="0 0 24 24"><path d="M9,5C12.87,5 16,8.13 16,12H17V15H16V19H9C5.13,19 2,15.87 2,12C2,8.13 5.13,5 9,5M9,8C6.79,8 5,9.79 5,12C5,14.21 6.79,16 9,16C11.21,16 13,14.21 13,12C13,9.79 11.21,8 9,8M17,17H22V19L22,21H20V19H17V17Z" /></svg>