<?xml version="1.0" encoding="UTF-8"?><!DOCTYPE svg PUBLIC "-//W3C//DTD SVG 1.1//EN" "http://www.w3.org/Graphics/SVG/1.1/DTD/svg11.dtd"><svg xmlns="http://www.w3.org/2000/svg" xmlns:xlink="http://www.w3.org/1999/xlink" version="1.1" width="24" height="24" viewBox="0 0 24 24"><path d="M6,2C4.9,2 4,2.9 4,4V20C4,21.1 4.9,22 6,22H18C19.1,22 20,21.1 20,20V4C20,2.9 19.1,2 18,2H6M7,4C7.55,4 8,4.45 8,5C8,5.55 7.55,6 7,6C6.45,6 6,5.55 6,5C6,4.45 6.45,4 7,4M10,4C10.55,4 11,4.45 11,5C11,5.55 10.55,6 10,6C9.45,6 9,5.55 9,5C9,4.45 9.45,4 10,4M12,8C15.31,8 18,10.69 18,14C18,17.31 15.31,20 12,20C8.69,20 6,17.31 6,14C6,10.69 8.69,8 12,8M9.32,10C8.91,10.89 8.5,11.78 8.5,12.67C8.5,13.55 9.32,14.45 9.32,15.33C9.32,16.22 8.5,17.11 8.5,18H9.73C9.73,17.11 10.56,16.22 10.56,15.33C10.56,14.45 9.73,13.55 9.73,12.67C9.73,11.78 10.15,10.89 10.56,10H9.32M11.79,10C11.38,10.89 10.97,11.78 10.97,12.67C10.97,13.55 11.79,14.45 11.79,15.33C11.79,16.22 10.97,17.11 10.97,18H12.21C12.21,17.11 13.03,16.22 13.03,15.33C13.03,14.45 12.21,13.55 12.21,12.67C12.21,11.78 12.62,10.89 13.03,10H11.79M14.27,10C13.85,10.89 13.44,11.78 13.44,12.67C13.44,13.55 14.27,14.45 14.27,15.33C14.27,16.22 13.44,17.11 13.44,18H14.68C14.68,17.11 15.5,16.22 15.5,15.33C15.5,14.45 14.68,13.55 14.68,12.67C14.68,11.78 15.09,10.89 15.5,10H14.27Z" /></svg>